<svg id="Capa_1" enable-background="new 0 0 497 497" height="512" viewBox="0 0 497 497" width="512" xmlns="http://www.w3.org/2000/svg"><path d="m248.642 30.815v-16.232c0-8.407-6.826-14.45-14.334-14.581-2.503-.044-5.081.57-7.508 1.971l-20.598 11.892-41.196 23.784c-9.708 5.605-9.708 19.617 0 25.221l61.794 35.677c9.708 5.605 21.842-1.401 21.842-12.611v-16.707c107.27.308 194.133 87.366 194.113 194.713-.02 107.795-86.889 194.646-194.684 194.646-101.517 0-184.883-77.701-193.876-176.875-.903-9.958-9.144-17.636-19.142-17.636-11.227 0-20.143 9.595-19.146 20.777 10.593 118.919 110.491 212.146 232.165 212.146 129.074 0 213.077-103.985 213.097-233.06.02-128.561-84.042-232.817-212.527-233.125z" fill="#0ed290"/><path d="m248.642 30.815v-16.232c0-8.407-6.826-14.45-14.334-14.581-2.503-.044-5.081.569-7.508 1.971l-9.883 5.706c1.088 2.018 1.725 4.35 1.725 6.904 0 8.894 6.925 16.182 15.798 16.797 121.11 8.401 216.748 109.311 216.729 232.56-.019 124.031-96.06 224.877-218.092 232.569 4.959.315 9.956.49 14.995.49 129.074.001 233.077-103.985 233.097-233.059.02-128.561-104.042-232.817-232.527-233.125z" fill="#00c285"/><g fill="#26a6fe"><path d="m215.781 147.719c16.24 0 31.36 10.64 31.36 28.419 0 30.24-44.38 40.04-44.38 54.6v3.36h38.92c3.08 0 5.74 3.64 5.74 7.84s-2.66 8.12-5.74 8.12h-49.84c-3.22 0-7.98-2.24-7.98-5.74v-13.58c0-22.4 45.08-34.3 45.08-54.04 0-5.74-3.78-12.46-13.02-12.46-6.86 0-12.46 3.64-12.46 12.32 0 3.36-3.5 6.72-9.52 6.72-4.76 0-8.26-2.24-8.26-9.8 0-15.959 14.56-25.759 30.1-25.759z"/><path d="m287.462 227.799h-33.6c-3.5 0-6.16-2.38-6.16-6.44 0-1.12.28-2.38.98-3.64l33.18-65.24c1.68-3.5 4.76-4.76 7.7-4.76 3.22 0 9.1 2.8 9.1 7 0 .7-.28 1.54-.7 2.38l-26.88 53.76h16.38v-14.7c0-4.06 4.62-5.74 9.1-5.74 4.62 0 9.1 1.68 9.1 5.74v14.7h6.58c3.78 0 5.74 4.2 5.74 8.54 0 4.2-2.8 8.4-5.74 8.4h-6.58v16.52c0 3.78-4.48 5.74-9.1 5.74-4.48 0-9.1-1.96-9.1-5.74z"/><path d="m282.282 320.294c0 2.94-1.82 7.28-3.5 10.64l-35.419 68.039c-.98 1.82-2.8 2.66-5.18 2.66-5.74 0-11.48-3.92-11.48-9.1 0-1.12.14-2.1.84-3.22l36.54-65.52v-9.24h-29.26v11.34c0 3.36-4.48 5.88-9.24 5.88-4.9 0-8.96-2.52-8.96-5.88v-21.56c0-2.8 3.92-5.74 7.98-5.74h49.7c3.5 0 7.98 2.94 7.98 5.74v15.961z"/></g><path d="m327.926 283.469h-157.646c-4.142 0-7.5-3.358-7.5-7.5s3.358-7.5 7.5-7.5h157.646c4.142 0 7.5 3.358 7.5 7.5 0 4.143-3.358 7.5-7.5 7.5z" fill="#0067c5"/></svg>